<?xml version="1.0" encoding="UTF-8"?>
<svg version="1.1" xmlns="http://www.w3.org/2000/svg" width="48" height="46">
<path d="M0 0 C3.16115776 1.36983503 3.9927092 1.9890638 6 5 C9.69399452 5.90297644 13.20818106 6.11152409 17 6 C18.29441197 9.59094935 17.71538408 11.63082775 16.3125 15.125 C15.97863281 15.99382813 15.64476562 16.86265625 15.30078125 17.7578125 C13.82069194 20.30907756 12.72035873 20.98058136 10 22 C10.495 24.97 10.495 24.97 11 28 C5.8614135 32.16642149 0.61430163 33.69532935 -6 34 C-9.5625 32.875 -9.5625 32.875 -12 31 C-12.68268138 29.67479497 -13.3507041 28.34187818 -14 27 C-15.66072849 26.31867549 -17.327767 25.65257873 -19 25 C-21.44745923 22.63693591 -21.95747305 21.40825869 -22.3125 18 C-22.01350896 15.12968603 -21.49648497 13.43178808 -20 11 C-18.35 11.33 -16.7 11.66 -15 12 C-15.33 12.763125 -15.66 13.52625 -16 14.3125 C-17.17436686 16.99069135 -17.17436686 16.99069135 -17 20 C-16.34 19.34 -15.68 18.68 -15 18 C-12.875 18.375 -12.875 18.375 -11 19 C-11 19.66 -11 20.32 -11 21 C-10.34 21 -9.68 21 -9 21 C-9.33 19.68 -9.66 18.36 -10 17 C-10.66 17 -11.32 17 -12 17 C-11.67 15.68 -11.34 14.36 -11 13 C-9.68 13 -8.36 13 -7 13 C-6.8865625 12.42636719 -6.773125 11.85273438 -6.65625 11.26171875 C-5.93511141 8.77636613 -4.90056919 6.98256797 -3.5 4.8125 C-3.0565625 4.11769531 -2.613125 3.42289062 -2.15625 2.70703125 C-1 1 -1 1 0 0 Z M9 14 C10 16 10 16 10 16 Z " fill="#1D1D1D" transform="translate(26,4)"/>
<path d="M0 0 C1.65 0.33 3.3 0.66 5 1 C4.67 1.763125 4.34 2.52625 4 3.3125 C2.82563314 5.99069135 2.82563314 5.99069135 3 9 C3.66 8.34 4.32 7.68 5 7 C7.125 7.375 7.125 7.375 9 8 C9 8.66 9 9.32 9 10 C9.99 9.67 10.98 9.34 12 9 C12 9.66 12 10.32 12 11 C10.68 11 9.36 11 8 11 C8 10.34 8 9.68 8 9 C7.01 9.495 7.01 9.495 6 10 C6 11.98 6 13.96 6 16 C2.12812449 14.74425659 -0.06837517 13.65992073 -2 10 C-2.4133256 6.03207421 -2.09678815 3.40728075 0 0 Z " fill="#404040" transform="translate(6,15)"/>
<path d="M0 0 C0.598125 0.20625 1.19625 0.4125 1.8125 0.625 C1.8125 1.285 1.8125 1.945 1.8125 2.625 C2.8025 2.295 3.7925 1.965 4.8125 1.625 C4.8125 2.285 4.8125 2.945 4.8125 3.625 C3.4925 3.625 2.1725 3.625 0.8125 3.625 C0.8125 2.965 0.8125 2.305 0.8125 1.625 C-0.1775 2.12 -0.1775 2.12 -1.1875 2.625 C-1.1875 4.605 -1.1875 6.585 -1.1875 8.625 C-1.8475 8.625 -2.5075 8.625 -3.1875 8.625 C-3.8475 6.315 -4.5075 4.005 -5.1875 1.625 C-2.1875 -0.375 -2.1875 -0.375 0 0 Z " fill="#939393" transform="translate(13.1875,22.375)"/>
<path d="M0 0 C0 0.66 0 1.32 0 2 C-0.639375 2.12375 -1.27875 2.2475 -1.9375 2.375 C-2.618125 2.58125 -3.29875 2.7875 -4 3 C-4.33 3.66 -4.66 4.32 -5 5 C-4.401875 4.79375 -3.80375 4.5875 -3.1875 4.375 C-1 4 -1 4 2 6 C0.02 6.66 -1.96 7.32 -4 8 C-4.66 7.34 -5.32 6.68 -6 6 C-5.625 3.375 -5.625 3.375 -5 1 C-2 0 -2 0 0 0 Z " fill="#747474" transform="translate(33,28)"/>
<path d="M0 0 C0.99 0 1.98 0 3 0 C3.33 1.32 3.66 2.64 4 4 C2.35 4.33 0.7 4.66 -1 5 C-0.67 3.35 -0.34 1.7 0 0 Z " fill="#808080" transform="translate(24,13)"/>
<path d="M0 0 C0.99 0.33 1.98 0.66 3 1 C3 2.32 3 3.64 3 5 C1.35 4.67 -0.3 4.34 -2 4 C-2 3.01 -2 2.02 -2 1 C-1.34 0.67 -0.68 0.34 0 0 Z " fill="#797979" transform="translate(33,16)"/>
</svg>
